<?xml version="1.0" encoding="UTF-8"?>
<!DOCTYPE svg PUBLIC "-//W3C//DTD SVG 1.1//EN" "http://www.w3.org/Graphics/SVG/1.1/DTD/svg11.dtd">
<svg xmlns="http://www.w3.org/2000/svg" version="1.1" width="80px" height="80px" style="shape-rendering:geometricPrecision; text-rendering:geometricPrecision; image-rendering:optimizeQuality; fill-rule:evenodd; clip-rule:evenodd" xmlns:xlink="http://www.w3.org/1999/xlink">
<g><path style="opacity:1" fill="#fefffe" d="M 51.5,10.5 C 54.5719,10.1826 57.5719,10.5159 60.5,11.5C 57.8801,14.8262 55.2134,18.1596 52.5,21.5C 54.483,23.9837 56.6496,26.3171 59,28.5C 62.0155,25.3172 65.1822,22.3172 68.5,19.5C 71.5242,36.1168 64.6909,43.1168 48,40.5C 44.729,41.3744 44.0623,43.0411 46,45.5C 47.8841,43.4237 50.0508,43.0903 52.5,44.5C 56.8181,49.3185 61.3181,53.9852 66,58.5C 66.6667,59.8333 66.6667,61.1667 66,62.5C 63.8333,64.6667 61.6667,66.8333 59.5,69C 58.1667,69.6667 56.8333,69.6667 55.5,69C 50.6667,64.1667 45.8333,59.3333 41,54.5C 40.1751,52.2992 40.6751,50.4659 42.5,49C 41.9747,48.3076 41.3081,47.8076 40.5,47.5C 33.6778,54.4901 27.0111,61.6567 20.5,69C 13.6667,70.1667 10.8333,67.3333 12,60.5C 19.4066,53.8819 26.9066,47.3819 34.5,41C 29.8333,36.3333 25.1667,31.6667 20.5,27C 15.5538,26.3733 12.3872,23.54 11,18.5C 10.5828,15.7158 11.7495,13.7158 14.5,12.5C 17.6612,13.9131 20.6612,15.5797 23.5,17.5C 24.3078,19.4233 24.8078,21.4233 25,23.5C 29.6667,28.1667 34.3333,32.8333 39,37.5C 40.0217,36.646 40.8551,35.646 41.5,34.5C 36.8981,22.933 40.2315,14.933 51.5,10.5 Z"/></g>
</svg>
